<?xml version="1.0" encoding="UTF-8"?>
<svg id="Layer_2" data-name="Layer 2" xmlns="http://www.w3.org/2000/svg" viewBox="0 0 1280 1000.73">
  <defs>
    <style>
      .cls-1 {
        fill: #ffb300;
      }

      .cls-2 {
        fill: #fff;
      }

      .cls-3 {
        fill: #f00f0c;
      }
    </style>
  </defs>
  <g id="Layer_1-2" data-name="Layer 1-2">
    <g>
      <path class="cls-3" d="M644.76,.56c95.25,0,190.5,.36,285.74-.23,27.55-.17,47.73,8.55,67.99,29.28,84.45,86.41,171.16,170.63,257.66,255.01,30.23,29.5,32.04,38.83,3.57,69.3-129.74,138.87-259.64,277.6-389.73,416.15-67.27,71.64-135.37,142.5-202.43,214.34-19.8,21.22-34.32,22.42-55.54-.39C436.38,795.17,260.01,606.97,82.68,419.67c-22.14-23.39-44.61-46.65-67.31-69.53-22.2-22.37-19.22-40.15,1.64-60.21C84.8,224.75,152.17,159.14,219.71,93.7c24.04-23.3,49.1-45.66,71.81-70.19C307.76,5.98,326.42-.08,349.28,0c98.49,.36,196.99,.16,295.48,.16v.41h0Zm-196.52,391.24c-.43,69.78,1.92,122.93,25.73,171.97,31.29,64.44,78.74,107.33,154.4,111.25,79.28,4.11,142.77-22.29,181.14-94.67,43.17-81.42,41.7-168.79,29.02-256.67-10.43-72.29-44.88-125.9-117.14-153.01-116.6-43.75-219.58,3.46-256.85,112.74-13.9,40.77-16.45,82.51-16.32,108.41l.02-.02h0Zm-42.38-287.55c-1.2-9.01-6.81-8.5-12.14-9.43-21.28-3.71-40.37-1.72-57.03,14.58-64.99,63.61-130.12,127.09-196.02,189.75-19.12,18.18-19.24,34.37-2.13,52.76,36.85,39.6,73.15,79.73,110.7,118.65,10.78,11.17,21.07,33.62,36.64,27.25,18-7.36,8.45-30.88,7.79-47.05-5.1-123.97,14.86-239.81,103.82-334.5,3.59-3.82,6.08-8.69,8.37-12.01h0Zm594.39,408.32c54.91-58.5,107.23-114,159.24-169.8,13.63-14.62,3.04-25.48-7.18-35.84-65.91-66.88-131.77-133.82-197.82-200.56-14.19-14.34-31.62-22.27-52.05-22.59-8.66-.14-18.33-.7-23.16,8.15-5.2,9.54,2.5,16.33,7.92,22.73,20.23,23.85,42.29,46.12,58.02,73.63,50.53,88.39,54.89,184.82,50.36,282.94-.53,11.55-5.34,23.37,4.66,41.35h.01Zm-277.92,291.43c-47.28,0-89.81-.13-132.33,.08-11.79,.06-16.96,7.07-9.78,16.57,16.18,21.38,33.19,42.28,54.76,58.76,8.16,6.23,16.87,5.54,23.24-1.68,20.23-22.92,44.54-42.42,64.12-73.74h0Z"/>
      <path class="cls-1" d="M448.25,391.82c-.14-25.89,2.41-67.64,16.32-108.41,37.27-109.28,140.25-156.49,256.85-112.74,72.25,27.11,106.71,80.73,117.14,153.01,12.68,87.88,14.14,175.25-29.02,256.67-38.37,72.38-101.86,98.78-181.14,94.67-75.66-3.92-123.11-46.8-154.4-111.25-23.81-49.04-26.16-102.19-25.73-171.97l-.02,.02h0Z"/>
      <path class="cls-1" d="M405.87,104.27c-2.28,3.33-4.77,8.19-8.37,12.01-88.96,94.68-108.92,210.53-103.82,334.5,.66,16.17,10.21,39.69-7.79,47.05-15.57,6.37-25.87-16.08-36.64-27.25-37.55-38.93-73.86-79.05-110.7-118.65-17.11-18.38-16.99-34.58,2.13-52.76,65.9-62.66,131.03-126.14,196.02-189.75,16.66-16.3,35.75-18.29,57.03-14.58,5.33,.93,10.94,.43,12.14,9.43h0Z"/>
      <path class="cls-1" d="M1000.26,512.59c-10-17.98-5.2-29.8-4.66-41.35,4.53-98.12,.18-194.55-50.36-282.94-15.73-27.51-37.79-49.78-58.02-73.63-5.43-6.4-13.12-13.19-7.92-22.73,4.82-8.85,14.5-8.29,23.16-8.15,20.43,.32,37.86,8.26,52.05,22.59,66.06,66.74,131.91,133.68,197.82,200.56,10.21,10.36,20.8,21.23,7.18,35.84-52.01,55.8-104.33,111.3-159.24,169.8h-.01Z"/>
      <path class="cls-1" d="M722.33,804.04c-19.57,31.31-43.89,50.82-64.12,73.74-6.37,7.21-15.08,7.91-23.24,1.68-21.57-16.48-38.58-37.38-54.76-58.76-7.18-9.49-2.01-16.51,9.78-16.57,42.52-.21,85.05-.08,132.33-.08h0Z"/>
    </g>
  </g>
  <g>
    <path class="cls-2" d="M400.27,250.36c-19,.55-38.79-17.91-39.54-36.88-.72-18.18,16.57-36.62,34.38-36.67,19.29-.06,40.08,18.75,40.19,36.35,.11,17.47-18,36.71-35.03,37.2Zm14.05-30.66c-.39-7.99-17.62-20.26-26.07-19.46-4.68,.44-9.07,2.13-7.32,7.48,3.65,11.2,12.9,16.74,23.75,19,4.92,1.02,9.2-1.78,9.65-7.01Z"/>
    <path class="cls-2" d="M886.68,218.1c2.79,4.94,2.74,9.41-2.94,11.98-6.57,2.98-6.59,7.62-4.32,13.33,3.08,7.75-2.67,10.84-7.82,13.85-5.28,3.09-9.13,.22-12.2-3.99-7.76-10.62-15.9-21.01-22.99-32.06-3.91-6.1-4.97-12.24,5.74-14.04,14.78-2.49,26.48-11.71,34.65-23.26,7.87-11.14,12.89-8.22,18.94,.02,6.72,9.16,13.05,18.61,19.38,28.04,2.49,3.72,6.97,7.18,1.82,12.39-3.95,4-8.09,8.02-13.89,6.05-5-1.7-6.91-6.56-5.9-11.78,1.23-6.36,.14-11.69-7.34-10.71-5.6,.74-4.37,6.03-3.12,10.18Zm-12.55,11.39c-.65-3.74-2.25-6.8-6.59-6.55-3.38,.19-5.09,2.57-4.85,5.92,.27,3.79,1.76,7.03,6.25,6.51,3.02-.35,5.25-2.3,5.19-5.88Z"/>
    <path class="cls-2" d="M504.53,148.9c.06,13.2-7.68,20.84-18.61,26.29-11.01,5.49-20.95,3.53-30.12-4.11-10.99-9.16-17.12-22.35-28.07-32.11-8.79-7.84,4.92-12.19,10.31-16.21,5.31-3.96,12.72-7.13,14.76,3.81,1.86,10.01,8.47,16.99,14.31,24.5,3.03,3.9,6.98,7.68,12.21,4.72,6.2-3.5,4.18-9.17,2.02-14.3-3.57-8.46-8.54-15.8-16.81-20.46-4.77-2.69-7.68-7.16-4.4-11.86,4.1-5.87,10.06-10.89,17.41-11.73,5.27-.6,8.86,3.31,8.7,9.17-.23,8.67,6.13,14.12,10.13,20.63,4.16,6.78,7.57,13.64,8.16,21.66Z"/>
    <path class="cls-2" d="M806.62,149.88c10.97-1.5,17.81-5.63,21.95-13.48,2.67-5.05,5.39-10.46,11.95-7.32,5.71,2.74,12.94,5.46,14.43,12.36,1.84,8.48-6.72,8.03-11.5,10.84-12.85,7.57-25.3,15.85-38.35,23.06-13.89,7.67-23.3,1.42-22.97-14.11,.41-19.22,9.15-37.18,8.27-56.61-.08-1.76,2.47-5.19,3.83-5.21,10.59-.13,16.78,8.05,23.89,14.05,5.85,4.94,1.71,9.38-2.14,13.56-5.4,5.86-7.68,13.13-9.36,22.85Z"/>
    <path class="cls-2" d="M543.86,87.36c-5.62,4.1-4.74,15.01-14.28,11.61-6.37-2.27-4.98-8.89-6.18-13.89-1.87-7.76,3.22-11.14,9.35-12.8,12.68-3.43,25.46-6.52,38.29-9.32,6.25-1.36,13.54-3.86,16.67,5.08,1.77,5.05,3.91,11.12,.02,15.43-5.97,6.62-11.53-1.15-19.05-2.91,3.15,13.96,1.68,27.88,14.1,37.52,6.81,5.28,4.25,10.62-2.22,13.99-7.58,3.94-16.14,6.17-24.24,3.09-9.41-3.58-2.26-11.42-2.74-17.3-.84-10.28-3-20.04-9.72-30.51Z"/>
    <path class="cls-2" d="M655.62,112.2c9.07-1.97,11.81-14.64,21.69-8.02,6.29,4.22,4.94,10.4,3.73,16.27-.73,3.56-2.48,7.12-6.78,7.37-14.4,.85-28.84,.94-42.92-2.59-5.77-1.45-7.39-6.43-4.7-11.42,7.63-14.13,5.86-29.01,4.14-43.87-.56-4.88-2.34-10.55,3.49-12.32,7.38-2.25,15.62-3.08,22.39,2.04,4.93,3.73,1.62,7.88,0,12.62-4.29,12.5-4.39,25.53-1.05,39.92Z"/>
    <path class="cls-2" d="M727.94,143.39c-7.73-1.29-16.64-3.83-21.46-10.21-4.51-5.97,4.78-9.53,7.3-14.51,5.64-11.11,11.07-22.45,10.7-35.3-.14-5.08-.77-10.43,5.26-11.5,8.82-1.58,16.5,3.32,23.06,8.05,4.74,3.42,.58,8.09-2.37,12.18-9.13,12.65-15.76,26.28-13.49,42.67,.87,6.22-2.42,8.78-9.02,8.62Z"/>
  </g>
  <g>
    <path class="cls-2" d="M592.89,700.21c12.09,.87,22.21,.71,31.39,5.74,11.98,6.56,17.12,16.85,9.08,28.09-7.68,10.75-4.72,18.83,2.2,26.37,5.35,5.83,8.2,11.1,2.6,17.18-5.01,5.43-14.47,11.76-19.13,6.59-11.22-12.43-24.4-5.83-36.59-7.55-13.84-1.95-21.89-5.35-12.53-21.71,5.91-10.32,9.14-23.59,6.29-34.99-4.75-19.02,1.92-23.21,16.67-19.73Z"/>
    <path class="cls-2" d="M465.13,641.11c.48,20.19-21.52,42.59-42.51,43.28-19.43,.64-39.24-19.64-39.51-40.47-.28-21.18,19.03-40.52,41.02-41.1,21.27-.56,40.5,17.39,40.99,38.28Zm-24.47-3.57c-.21-7.45-2.95-11.87-9.69-10.34-11.61,2.64-20.52,9.22-23.35,21.4-1.34,5.77,1.19,11.88,7.98,10.42,12.17-2.62,20.57-10.76,25.06-21.48Z"/>
    <path class="cls-2" d="M715.74,753.52c-7.09-8.9-16.97-5.77-24.7-8.98-11.71-4.87-19.42-11.56-17.89-25.31,1.53-13.74,10.95-19.33,23.06-20.93,9.03-1.19,18.3,.68,26.89-4.73,3.68-2.32,9.51-2.33,12.64,2.35,3.48,5.21,4.18,11.56,2.18,17.29-2,5.72-7.73,7.13-13.26,6.47-3.18-.38-6.11-2.55-9.24-3.64-3.89-1.35-8.49-2.7-9.19,3.32-.51,4.39,3.71,4.64,6.99,5.06,5.28,.67,10.79,.57,15.79,2.12,11.56,3.58,21.29,10.2,20.06,23.79-1.24,13.65-10.67,20.74-23.93,22.95-7.78,1.3-16.03-2.21-23.48,2.65-5.67,3.7-12.58,7.99-17.68,.97-4.16-5.73-6.62-14.18-2.08-20.7,4.8-6.9,12-7.01,19.36-2.02,3.79,2.56,8.58,3.87,14.5-.65Z"/>
    <path class="cls-2" d="M504.27,748.99c-26.06-.18-41.02-26.3-29.74-52.14,3.19-7.3,7.1-14.3,10.2-21.64,2.37-5.62-.6-14.68,9.26-15.26,8.68-.51,14.92,5.62,20.94,10.54,5.58,4.56,2.02,9.72-2.48,13.3-8.76,6.97-12.93,16.72-16.42,26.77-1.74,5.02-2.88,11.16,3.62,13.84,5.43,2.24,10.38,.66,13.28-5.26,4.08-8.32,9.4-16.2,12.24-24.9,1.87-5.72,.96-13.17,9.16-12.54,7.21,.55,14.47,3.66,18.93,10,5.11,7.28-2.29,10.01-5.7,14.59-6.73,9.03-12.29,18.93-18.76,28.18-5.89,8.43-12.99,15.37-24.53,14.53Z"/>
    <path class="cls-2" d="M797.08,687.53c9.57-3.59,15.26-6.32,18.96-.49,3.95,6.21-2.07,9.57-5.71,13.18-5.24,5.2-3.1,10.97,1.21,13.78,6.34,4.14,10.18-2.47,11.76-6.92,2.34-6.59,3.71-13.56,12.19-13.37,7.56,.17,8.32,7.62,10.8,12.82,4.67,9.79-5.44,10.22-9.44,14.5-.9,.96-2,1.85-3.18,2.4-12.67,5.89-23.01,20.89-36.2,19.54-15.04-1.53-8.36-22.85-18.04-32.08-4.23-4.03-5.93-11.43-10.61-14.13-21.16-12.25-9.53-19.46,3.25-27.1,9.14-5.46,18.08-11.26,27.28-16.62,4.98-2.9,10.24-3.34,14.67,1.29,3.87,4.04,6.84,8.87,3.53,14.31-2.85,4.67-7.33,8.57-13.34,5.8-7.7-3.55-12.51,.23-13.01,6.65-.45,5.83,5.26,6.66,5.88,6.44Z"/>
    <path class="cls-2" d="M900.8,509.63c5.08,1.23,11.5,2.99,13.44,9.19,1.62,5.19-.26,11.09-6.24,13.12-7.7,2.61-12.78,7.64-6.97,14.26,5.15,5.87,10.69,2.41,15.87-4.25,7.52-9.68,14.29-6.98,14.07,5.36-.18,9.68,2.66,11.65,11.67,9.21,12.49-3.39,13.6,3.87,11.01,13.46-6.1,22.53-9.26,23.02-30.1,12.99-11.62-5.59-23.55-12.97-37.74-11.14-10.55,1.36-13.81-4.78-11.06-13.25,4.91-15.11,11.15-29.81,17.02-44.6,1.37-3.45,4.52-4.64,9.04-4.34Z"/>
    <path class="cls-2" d="M384.12,551.02c4.45,8,9.64,6.91,14.63,4.34,6.72-3.47,11.66-1.81,15.03,4.52,2.85,5.36,5.61,11.73,2.14,17.09-4.14,6.41-10.81,2.55-16.49,1.27-17.22-3.86-33.42-10.87-51.05,3.1-8.94,7.08-11.54-6.75-14.56-13.5-3.18-7.1-5.2-17.89,4.76-17.2,22,1.52,27.12-16.14,37.68-27.86,4.26-4.73,6.04-14.88,13.55-12.49,9.78,3.11,11,14.28,13.05,23.29,2.25,9.89-4.3,12.76-12.46,14.04-1.79,.28-3.39,1.78-6.28,3.4Z"/>
    <path class="cls-2" d="M890.93,633.71c-2-5.5-.04-10.23,5.42-12.87,7.66-3.71,12.28,2.26,17.4,6.37,5.09,4.09,5.74,8.97,1.91,13.95-8.51,11.06-16.94,22.24-26.21,32.64-5.29,5.94-11.11,5.92-16.19-1.88-9.67-14.84-22.83-25.67-39.65-31.82-4.7-1.72-9.16-4.69-6.63-10.23,3.29-7.17,7.39-14.26,14.79-18.23,5.15-2.77,9.66-.38,11.9,3.94,5.8,11.18,16.15,17.49,25.22,25.18,3.06,2.6,6.62,5.25,10.83,3.46,5.41-2.3,3.17-6.35,1.2-10.52Z"/>
  </g>
</svg>